# AST/ASF file generated using VICON BodyLanguage
# -----------------------------------------------
:version 1.10
:name VICON
:units
  mass 1.0
  length 0.45
  angle deg
:documentation
   .ast/.asf automatically generated from VICON data using
   VICON BodyBuilder and BodyLanguage model FoxedUp or BRILLIANT.MOD
:root
   order TX TY TZ RX RY RZ
   axis XYZ
   position 0 0 0  
   orientation 0 0 0 
:bonedata
  begin
     id 1 
     name lhipjoint
     direction 0.589753 -0.68606 0.426044 
     length 2.54082 
     axis 0 0 0  XYZ
  end
  begin
     id 2 
     name lfemur
     direction 0.34202 -0.939693 0  
     length 7.04539  
     axis 0 0 20  XYZ
    dof rx ry rz
    limits (-160.0 20.0)
           (-70.0 70.0)
           (-60.0 70.0)
  end
  begin
     id 3 
     name ltibia
     direction 0.34202 -0.939693 0   
     length 7.83772   
     axis 0 0 20   XYZ
    dof rx
    limits (-10.0 170.0)
  end
  begin
     id 4 
     name lfoot
     direction 0.0596604 -0.163915 0.984669   
     length 2.39542   
     axis -90 7.62852e-016 20   XYZ
    dof rx rz
    limits (-45.0 90.0)
           (-70.0 20.0)
  end
  begin
     id 5 
     name ltoes
     direction 1.53514e-011 -4.21954e-011 1   
     length 1.2047   
     axis -90 7.62852e-016 20   XYZ
    dof rx
    limits (-90.0 20.0)
  end
  begin
     id 6 
     name rhipjoint
     direction -0.580585 -0.69168 0.429534   
     length 2.52018  
     axis 0 0 0  XYZ 
  end
  begin
     id 7 
     name rfemur
     direction -0.34202 -0.939693 0   
     length 7.0101   
     axis 0 0 -20   XYZ
    dof rx ry rz
    limits (-160.0 20.0)
           (-70.0 70.0)
           (-70.0 60.0)
  end
  begin
     id 8 
     name rtibia
     direction -0.34202 -0.939693 0   
     length 7.70628   
     axis 0 0 -20   XYZ
    dof rx
    limits (-10.0 170.0)
 end
 begin
     id 9 
     name rfoot
     direction -0.0696237 -0.19129 0.979061   
     length 2.52466  
     axis -90 -7.62852e-016 -20   XYZ
    dof rx rz
    limits (-45.0 90.0)
           (-20.0 70.0)
  end
  begin
     id 10 
     name rtoes
     direction -1.53519e-011 -4.21793e-011 1   
     length 1.266   
     axis -90 -7.62852e-016 -20   XYZ
    dof rx
    limits (-90.0 20.0)
  end
  begin
     id 11 
     name lowerback
     direction 0.00381965 0.995707 -0.0924856   
     length 2.20825   
     axis 0 0 0   XYZ
    dof rx ry rz
    limits (-20.0 45.0)
           (-30.0 30.0)
           (-30.0 30.0)
  end
  begin
     id 12 
     name upperback
     direction -0.0139043 0.999634 -0.0231929   
     length 2.21517   
     axis 0 0 0   XYZ
    dof rx ry rz
    limits (-20.0 45.0)
           (-30.0 30.0)
           (-30.0 30.0)
  end
  begin
     id 13 
     name thorax
     direction -0.0143933 0.999691 0.0202892   
     length 2.22911   
     axis 0 0 0   XYZ
    dof rx ry rz
    limits (-20.0 45.0)
           (-30.0 30.0)
           (-30.0 30.0)
  end
  begin
     id 14 
     name lowerneck
     direction -0.0251153 0.981819 0.188153   
     length 1.61782   
     axis 0 0 0   XYZ
    dof rx ry rz
    limits (-20.0 45.0)
           (-30.0 30.0)
           (-30.0 30.0)
  end
  begin
     id 15 
     name upperneck
     direction 0.0563891 0.969357 -0.239095   
     length 1.64526   
     axis 0 0 0   XYZ
    dof rx ry rz
    limits (-20.0 45.0)
           (-30.0 30.0)
           (-30.0 30.0)
  end
  begin
     id 16
     name head
     direction 0.0208328 0.99459 -0.101773  
     length 1.67436  
     axis 0 0 0   XYZ
    dof rx ry rz
    limits (-20.0 45.0)
           (-30.0 30.0)
           (-30.0 30.0)
  end
  begin
     id 17 
     name lclavicle
     direction 0.917689 0.397224 0.00772059  
     length 3.31102  
     axis 0 0 0   XYZ
    dof ry rz
    limits (-20.0 10.0)
           (0.0 20.0)
  end
  begin
     id 18 
     name lhumerus
     direction 1 -4.4896e-011 2.32308e-027   
     length 5.25537   
     axis 180 -30 -90   XYZ
    dof rx ry rz
    limits (-60.0 90.0)
           (-90.0 90.0)
           (-90.0 90.0)
  end
  begin
     id 19
     name lradius
     direction 1 -4.49005e-011 -2.04271e-027   
     length 3.38855   
     axis 180 -30 -90   XYZ
    dof rx
    limits (-10.0 170.0)
  end
  begin
     id 20
     name lwrist
     direction 1 -4.48892e-011 2.56952e-028   
     length 1.69428   
     axis -5.12785e-016 90 90   XYZ
    dof ry
    limits (-180.0 0.0)
 end
  begin
     id 21 
     name lhand
     direction 1 -4.48966e-011 5.13905e-028   
     length 0.614516   
     axis -3.27915e-016 90 90   XYZ
    dof rx rz
    limits (-90.0 90.0)
           (-45.0 45.0)
  end
  begin
     id 22 
     name lfingers
     direction 1 -4.48979e-011 1.02781e-027   
     length 0.495439   
     axis -6.5583e-016 90 90   XYZ
    dof rx
    limits (0.0 90.0)
  end
  begin
     id 23
     name lthumb
     direction 0.707107 -6.35001e-011 0.707107   
     length 0.711354   
     axis -90 45 2.85299e-015   XYZ
    dof rx rz
    limits (-45.0 45.0)
           (-45.0 45.0)
  end
  begin
     id 24 
     name rclavicle
     direction -0.938556 0.342765 -0.0403177   
     length 3.27019  
     axis 0 0 0   XYZ 
    dof ry rz
    limits (-10.0 20.0)
           (-20.0 0.0)
  end
  begin
     id 25 
     name rhumerus
     direction -1 -4.48966e-011 2.52291e-027  
     length 5.38183   
     axis 180 30 90   XYZ
    dof rx ry rz
    limits (-90.0 60.0)
           (-90.0 90.0)
           (-90.0 90.0)
  end
  begin
     id 26 
     name rradius
     direction -1 -4.4896e-011 1.5797e-027   
     length 3.16988   
     axis 180 30 90   XYZ
    dof rx
    limits (-10.0 170.0)
  end
  begin
     id 27 
     name rwrist
     direction -1 -4.48947e-011 2.56952e-028   
     length 1.58494   
     axis -5.12785e-016 -90 -90   XYZ
    dof ry
    limits (-180.0 0.0)
  end
  begin
     id 28
     name rhand
     direction -1 -4.49098e-011 5.13905e-028   
     length 0.637679   
     axis -3.27915e-016 -90 -90   XYZ
    dof rx rz
    limits (-90.0 90.0)
           (-45.0 45.0)
  end
  begin
     id 29
     name rfingers
     direction -1 -4.49026e-011 1.02781e-027   
     length 0.514113   
     axis -6.5583e-016 -90 -90   XYZ
    dof rx
    limits (0.0 90.0)
  end
  begin
     id 30
     name rthumb
     direction -0.707107 -6.3491e-011 0.707107   
     length 0.738167   
     axis -90 -45 -2.85299e-015   XYZ
    dof rx rz
    limits (-45.0 45.0)
           (-45.0 45.0)
  end
:hierarchy
  begin
    root lhipjoint rhipjoint lowerback
    lhipjoint lfemur
    lfemur ltibia
    ltibia lfoot
    lfoot ltoes
    rhipjoint rfemur
    rfemur rtibia
    rtibia rfoot
    rfoot rtoes
    lowerback upperback
    upperback thorax
    thorax lowerneck lclavicle rclavicle
    lowerneck upperneck
    upperneck head
    lclavicle lhumerus
    lhumerus lradius
    lradius lwrist
    lwrist lhand lthumb
    lhand lfingers
    rclavicle rhumerus
    rhumerus rradius
    rradius rwrist
    rwrist rhand rthumb
    rhand rfingers
  end

#!OML:ASF H:\Swim\Project 1\Capture day 1\Session 1\swimmer.ASF
:FULLY-SPECIFIED
:DEGREES
669
root 3.41778 16.0819 3.72598 42.9779 4.38382 7.31954
lowerback 13.6501 -1.44151 -1.62716
upperback 5.99025 -2.1121 -2.68699
thorax -1.39214 -1.018 -1.57606
lowerneck -28.1702 -4.83088 -6.54223
upperneck 33.0157 -7.03846 7.87004
head 17.4587 -2.46052 3.08659
rclavicle -1.25483e-014 1.93815e-015
rhumerus 17.0106 37.1978 -64.8525
rradius 23.2963
rwrist 0.985707
rhand -53.8188 61.921
rfingers 7.12502
rthumb -26.2498 33.7167
lclavicle -1.25483e-014 1.93815e-015
lhumerus 14.9752 -29.4699 65.4
lradius 26.2313
lwrist -22.4153
lhand -59.808 24.8541
lfingers 7.12502
lthumb -31.969 52.0662
rfemur -23.4019 5.71758 19.1497
rtibia 35.8654
rfoot -13.8737 -4.8892
rtoes -31.1378
lfemur -35.9659 6.44888 -20.3482
ltibia 58.8794
lfoot 3.63274 0.27876
ltoes -5.9499
670
root 3.43461 16.0439 3.78854 42.8772 4.22949 7.17867
lowerback 13.3481 -1.40388 -1.59049
upperback 5.99457 -2.05102 -2.69005
thorax -1.22625 -0.988829 -1.61563
lowerneck -28.1231 -4.76625 -6.50336
upperneck 33.2343 -6.93851 7.76501
head 17.5432 -2.43117 3.06405
rclavicle -1.26477e-014 2.10588e-014
rhumerus 16.4894 37.3079 -65.3038
rradius 23.2698
rwrist 1.24455
rhand -53.8479 62.3916
rfingers 7.12502
rthumb -26.2778 34.1914
lclavicle -1.26477e-014 2.10588e-014
lhumerus 14.3845 -29.4528 65.7646
lradius 26.1529
lwrist -22.5377
lhand -59.9517 25.1502
lfingers 7.12502
lthumb -32.1059 52.3348
rfemur -23.1315 5.64305 19.2079
rtibia 35.999
rfoot -13.9081 -4.69592
rtoes -31.0405
lfemur -34.4745 5.46215 -19.8113
ltibia 57.4767
lfoot 4.46276 0.301938
ltoes -6.32513
671
root 3.45158 16.0049 3.85103 42.7768 4.07776 7.04508
lowerback 13.0536 -1.36805 -1.55581
upperback 5.99003 -1.99322 -2.69309
thorax -1.07332 -0.961142 -1.65285
lowerneck -28.082 -4.70333 -6.46468
upperneck 33.4714 -6.84214 7.6612
head 17.6403 -2.403 3.04194
rclavicle -1.41883e-014 1.86112e-014
rhumerus 15.9438 37.4075 -65.7693
rradius 23.2459
rwrist 1.51078
rhand -53.8708 62.8396
rfingers 7.12502
rthumb -26.2997 34.6427
lclavicle -1.41883e-014 1.86112e-014
lhumerus 13.7659 -29.3819 66.1684
lradius 26.0726
lwrist -22.712
lhand -60.0884 25.422
lfingers 7.12502
lthumb -32.236 52.5803
rfemur -22.8573 5.56742 19.2603
rtibia 36.1372
rfoot -13.962 -4.511
rtoes -30.9556
lfemur -33.0335 4.51742 -19.3434
ltibia 56.0137
lfoot 5.1649 0.204055
ltoes -6.75618
672
root 3.46846 15.965 3.91343 42.6836 3.92086 6.91936
lowerback 12.7649 -1.33269 -1.53521
upperback 5.97072 -1.93838 -2.69385
thorax -0.938173 -0.935067 -1.6786
lowerneck -28.035 -4.64073 -6.43357
upperneck 33.7172 -6.74365 7.55909
head 17.7418 -2.37503 3.02271
rclavicle 1.79279e-014 -2.09966e-015
rhumerus 15.3768 37.5189 -66.2359
rradius 23.2295
rwrist 1.76508
rhand -53.883 63.2864
rfingers 7.12502
rthumb -26.3113 35.0913
lclavicle 1.79279e-014 -2.09966e-015
lhumerus 13.1164 -29.2714 66.6037
lradius 25.9953
lwrist -22.9104
lhand -60.2274 25.6687
lfingers 7.12502
lthumb -32.3683 52.8001
rfemur -22.5934 5.49304 19.3006
rtibia 36.2853
rfoot -14.034 -4.33259
rtoes -30.8939
lfemur -31.6518 3.62647 -18.9467
ltibia 54.4996
lfoot 5.75404 0.0126518
ltoes -7.183
673
root 3.48523 15.9235 3.9753 42.5978 3.75617 6.80613
lowerback 12.4809 -1.29752 -1.53067
upperback 5.93788 -1.88624 -2.69663
thorax -0.818984 -0.910478 -1.69641
lowerneck -27.978 -4.57964 -6.40867
upperneck 33.9628 -6.64711 7.46373
head 17.8427 -2.3481 3.00718
rclavicle -2.54196e-014 9.58515e-015
rhumerus 14.7908 37.6365 -66.7062
rradius 23.2196
rwrist 2.01565
rhand -53.89 63.7305
rfingers 7.12502
rthumb -26.318 35.5363
lclavicle -2.54196e-014 9.58515e-015
lhumerus 12.4378 -29.1292 67.0634
lradius 25.9284
lwrist -23.1296
lhand -60.3677 25.9029
lfingers 7.12502
lthumb -32.5019 53.0069
rfemur -22.3423 5.41932 19.3224
rtibia 36.4481
rfoot -14.1266 -4.15795
rtoes -30.842
lfemur -30.3374 2.78302 -18.6221
ltibia 52.9489
lfoot 6.24235 -0.237143
ltoes -7.58944
674
root 3.50186 15.8804 4.03645 42.5173 3.58542 6.70815
lowerback 12.1992 -1.26384 -1.54364
upperback 5.89672 -1.83819 -2.70134
thorax -0.709045 -0.88813 -1.70536
lowerneck -27.9073 -4.51808 -6.38766
upperneck 34.196 -6.54861 7.37162
head 17.9348 -2.321 2.99372
rclavicle 1.14814e-014 -8.21928e-015
rhumerus 14.1996 37.7702 -67.1674
rradius 23.2178
rwrist 2.2513
rhand -53.8954 64.1609
rfingers 7.12502
rthumb -26.3232 35.9675
lclavicle 1.14814e-014 -8.21928e-015
lhumerus 11.7407 -28.9789 67.5286
lradius 25.8802
lwrist -23.3499
lhand -60.504 26.1577
lfingers 7.12502
lthumb -32.6315 53.2349
rfemur -22.0995 5.35478 19.3241
rtibia 36.6218
rfoot -14.2414 -3.99521
rtoes -30.7735
lfemur -29.0887 1.98558 -18.3648
ltibia 51.3726
lfoot 6.64925 -0.503871
ltoes -8.0239
